<?xml version="1.0" encoding="utf-8"?>
<!-- Generator: Adobe Illustrator 26.0.2, SVG Export Plug-In . SVG Version: 6.00 Build 0)  -->
<svg version="1.1" id="Слой_1" xmlns="http://www.w3.org/2000/svg" xmlns:xlink="http://www.w3.org/1999/xlink" x="0px" y="0px"
	 viewBox="0 0 145.81 97.98" style="enable-background:new 0 0 145.81 97.98;" xml:space="preserve">
<style type="text/css">
	.st0{fill:#EACA7A;}
</style>
<path class="st0" d="M13.13,97.98h119.56c7.24,0,13.13-5.89,13.13-13.12V56.81c0-3.66-1.55-7.19-4.25-9.67L94.02,3.46
	C91.59,1.23,88.44,0,85.14,0H60.67c-3.3,0-6.45,1.23-8.88,3.46L4.25,47.15c-2.7,2.48-4.25,6-4.25,9.67v28.04
	C0,92.09,5.89,97.98,13.13,97.98z M60.67,7.49h24.47c1.08,0,2.12,0.31,3.01,0.88L72.8,23.73L57.53,8.46
	C58.46,7.84,59.54,7.49,60.67,7.49z M72.91,32.59l18.46,29.02H54.45L72.91,32.59z M7.49,56.81c0-1.57,0.66-3.09,1.82-4.15
	l42.01-38.6L66.3,29.03L46.6,60c-1.14,1.79-1.21,3.97-0.19,5.82c1.11,2.02,3.33,3.28,5.78,3.28h41.43c2.46,0,4.67-1.26,5.78-3.28
	c1.02-1.85,0.94-4.03-0.19-5.82L79.43,28.9l14.94-14.94l42.13,38.71c1.16,1.06,1.82,2.58,1.82,4.15v28.04
	c0,3.11-2.53,5.64-5.64,5.64H13.13c-3.11,0-5.64-2.53-5.64-5.64V56.81z"/>
</svg>
